<mxfile host="app.diagrams.net" agent="Mozilla/5.0 (Windows NT 10.0; Win64; x64) AppleWebKit/537.36 (KHTML, like Gecko) Chrome/129.0.0.0 Safari/537.36" version="24.8.0">
  <diagram name="PÃ¡gina-1" id="mt8v9FVFiJk4aQlgQH5L">
    <mxGraphModel dx="880" dy="460" grid="1" gridSize="10" guides="1" tooltips="1" connect="1" arrows="1" fold="1" page="1" pageScale="1" pageWidth="827" pageHeight="1169" math="0" shadow="0">
      <root>
        <mxCell id="0" />
        <mxCell id="1" parent="0" />
        <mxCell id="30vycNhrkMzqPdWhLKba-2" value="Recepcionista" style="shape=umlActor;verticalLabelPosition=bottom;verticalAlign=top;html=1;outlineConnect=0;" parent="1" vertex="1">
          <mxGeometry x="20" y="200" width="40" height="80" as="geometry" />
        </mxCell>
        <mxCell id="30vycNhrkMzqPdWhLKba-8" value="Gerenciar aluno" style="ellipse;whiteSpace=wrap;html=1;" parent="1" vertex="1">
          <mxGeometry x="120" y="120" width="120" height="80" as="geometry" />
        </mxCell>
        <mxCell id="30vycNhrkMzqPdWhLKba-9" value="Gerenciar pagamento" style="ellipse;whiteSpace=wrap;html=1;" parent="1" vertex="1">
          <mxGeometry x="120" y="280" width="120" height="80" as="geometry" />
        </mxCell>
        <mxCell id="30vycNhrkMzqPdWhLKba-10" value="Cadastrar aluno" style="ellipse;whiteSpace=wrap;html=1;" parent="1" vertex="1">
          <mxGeometry x="280" y="120" width="120" height="80" as="geometry" />
        </mxCell>
        <mxCell id="30vycNhrkMzqPdWhLKba-11" value="Exibir aluno" style="ellipse;whiteSpace=wrap;html=1;" parent="1" vertex="1">
          <mxGeometry x="410" y="120" width="120" height="80" as="geometry" />
        </mxCell>
        <mxCell id="30vycNhrkMzqPdWhLKba-12" value="Excluir aluno" style="ellipse;whiteSpace=wrap;html=1;" parent="1" vertex="1">
          <mxGeometry x="540" y="120" width="120" height="80" as="geometry" />
        </mxCell>
        <mxCell id="30vycNhrkMzqPdWhLKba-13" value="Buscar aluno" style="ellipse;whiteSpace=wrap;html=1;" parent="1" vertex="1">
          <mxGeometry x="670" y="120" width="120" height="80" as="geometry" />
        </mxCell>
        <mxCell id="30vycNhrkMzqPdWhLKba-14" value="Registrar pagamento" style="ellipse;whiteSpace=wrap;html=1;" parent="1" vertex="1">
          <mxGeometry x="280" y="280" width="120" height="80" as="geometry" />
        </mxCell>
        <mxCell id="30vycNhrkMzqPdWhLKba-15" value="Buscar pagamento" style="ellipse;whiteSpace=wrap;html=1;" parent="1" vertex="1">
          <mxGeometry x="410" y="280" width="120" height="80" as="geometry" />
        </mxCell>
        <mxCell id="30vycNhrkMzqPdWhLKba-16" value="Exportar pagamento" style="ellipse;whiteSpace=wrap;html=1;" parent="1" vertex="1">
          <mxGeometry x="540" y="280" width="120" height="80" as="geometry" />
        </mxCell>
        <mxCell id="30vycNhrkMzqPdWhLKba-17" value="Exportar aluno" style="ellipse;whiteSpace=wrap;html=1;" parent="1" vertex="1">
          <mxGeometry x="670" y="210" width="120" height="80" as="geometry" />
        </mxCell>
        <mxCell id="30vycNhrkMzqPdWhLKba-18" value="" style="endArrow=none;html=1;rounded=0;entryX=0;entryY=0.5;entryDx=0;entryDy=0;" parent="1" target="30vycNhrkMzqPdWhLKba-8" edge="1">
          <mxGeometry width="50" height="50" relative="1" as="geometry">
            <mxPoint x="40" y="180" as="sourcePoint" />
            <mxPoint x="260" y="220" as="targetPoint" />
            <Array as="points">
              <mxPoint x="40" y="160" />
            </Array>
          </mxGeometry>
        </mxCell>
        <mxCell id="30vycNhrkMzqPdWhLKba-19" value="" style="endArrow=none;html=1;rounded=0;entryX=0;entryY=0.5;entryDx=0;entryDy=0;" parent="1" target="30vycNhrkMzqPdWhLKba-9" edge="1">
          <mxGeometry width="50" height="50" relative="1" as="geometry">
            <mxPoint x="40" y="300" as="sourcePoint" />
            <mxPoint x="120" y="290" as="targetPoint" />
            <Array as="points">
              <mxPoint x="40" y="320" />
            </Array>
          </mxGeometry>
        </mxCell>
        <mxCell id="30vycNhrkMzqPdWhLKba-20" value="" style="endArrow=classic;dashed=1;html=1;rounded=0;exitX=1;exitY=0.5;exitDx=0;exitDy=0;entryX=0;entryY=0.5;entryDx=0;entryDy=0;endFill=1;" parent="1" source="30vycNhrkMzqPdWhLKba-8" target="30vycNhrkMzqPdWhLKba-10" edge="1">
          <mxGeometry width="50" height="50" relative="1" as="geometry">
            <mxPoint x="270" y="250" as="sourcePoint" />
            <mxPoint x="320" y="200" as="targetPoint" />
          </mxGeometry>
        </mxCell>
        <mxCell id="30vycNhrkMzqPdWhLKba-22" value="&amp;lt;&amp;lt;include&amp;gt;&amp;gt;" style="text;html=1;align=center;verticalAlign=middle;resizable=0;points=[];autosize=1;strokeColor=none;fillColor=none;fontSize=7;" parent="1" vertex="1">
          <mxGeometry x="230" y="140" width="60" height="20" as="geometry" />
        </mxCell>
        <mxCell id="30vycNhrkMzqPdWhLKba-23" value="" style="endArrow=classic;html=1;rounded=0;exitX=1;exitY=0.5;exitDx=0;exitDy=0;dashed=1;" parent="1" source="30vycNhrkMzqPdWhLKba-9" edge="1">
          <mxGeometry width="50" height="50" relative="1" as="geometry">
            <mxPoint x="250" y="370" as="sourcePoint" />
            <mxPoint x="280" y="320" as="targetPoint" />
          </mxGeometry>
        </mxCell>
        <mxCell id="30vycNhrkMzqPdWhLKba-24" value="&amp;lt;&amp;lt;include&amp;gt;&amp;gt;" style="text;html=1;align=center;verticalAlign=middle;resizable=0;points=[];autosize=1;strokeColor=none;fillColor=none;fontSize=7;" parent="1" vertex="1">
          <mxGeometry x="230" y="320" width="60" height="20" as="geometry" />
        </mxCell>
        <mxCell id="30vycNhrkMzqPdWhLKba-25" value="" style="endArrow=classic;html=1;rounded=0;exitX=0.828;exitY=0.879;exitDx=0;exitDy=0;exitPerimeter=0;entryX=0.5;entryY=1;entryDx=0;entryDy=0;dashed=1;" parent="1" source="30vycNhrkMzqPdWhLKba-8" target="30vycNhrkMzqPdWhLKba-10" edge="1">
          <mxGeometry width="50" height="50" relative="1" as="geometry">
            <mxPoint x="220" y="210" as="sourcePoint" />
            <mxPoint x="310" y="210" as="targetPoint" />
            <Array as="points">
              <mxPoint x="220" y="210" />
              <mxPoint x="340" y="210" />
            </Array>
          </mxGeometry>
        </mxCell>
        <mxCell id="30vycNhrkMzqPdWhLKba-27" value="&amp;lt;&amp;lt;include&amp;gt;&amp;gt;" style="edgeLabel;html=1;align=center;verticalAlign=middle;resizable=0;points=[];" parent="30vycNhrkMzqPdWhLKba-25" vertex="1" connectable="0">
          <mxGeometry x="-0.0296" relative="1" as="geometry">
            <mxPoint as="offset" />
          </mxGeometry>
        </mxCell>
        <mxCell id="30vycNhrkMzqPdWhLKba-28" value="" style="endArrow=classic;html=1;rounded=0;exitX=0.667;exitY=0.972;exitDx=0;exitDy=0;exitPerimeter=0;entryX=0.5;entryY=1;entryDx=0;entryDy=0;dashed=1;" parent="1" source="30vycNhrkMzqPdWhLKba-8" target="30vycNhrkMzqPdWhLKba-11" edge="1">
          <mxGeometry width="50" height="50" relative="1" as="geometry">
            <mxPoint x="200" y="220" as="sourcePoint" />
            <mxPoint x="300" y="220" as="targetPoint" />
            <Array as="points">
              <mxPoint x="200" y="220" />
              <mxPoint x="470" y="220" />
            </Array>
          </mxGeometry>
        </mxCell>
        <mxCell id="30vycNhrkMzqPdWhLKba-29" value="&amp;lt;&amp;lt;include&amp;gt;&amp;gt;" style="edgeLabel;html=1;align=center;verticalAlign=middle;resizable=0;points=[];" parent="30vycNhrkMzqPdWhLKba-28" vertex="1" connectable="0">
          <mxGeometry x="-0.0197" relative="1" as="geometry">
            <mxPoint as="offset" />
          </mxGeometry>
        </mxCell>
        <mxCell id="30vycNhrkMzqPdWhLKba-30" value="" style="endArrow=classic;html=1;rounded=0;exitX=0.5;exitY=1;exitDx=0;exitDy=0;entryX=0.5;entryY=1;entryDx=0;entryDy=0;dashed=1;" parent="1" source="30vycNhrkMzqPdWhLKba-8" target="30vycNhrkMzqPdWhLKba-12" edge="1">
          <mxGeometry width="50" height="50" relative="1" as="geometry">
            <mxPoint x="180" y="210" as="sourcePoint" />
            <mxPoint x="300" y="230" as="targetPoint" />
            <Array as="points">
              <mxPoint x="180" y="230" />
              <mxPoint x="600" y="230" />
            </Array>
          </mxGeometry>
        </mxCell>
        <mxCell id="30vycNhrkMzqPdWhLKba-31" value="&amp;lt;&amp;lt;include&amp;gt;&amp;gt;" style="edgeLabel;html=1;align=center;verticalAlign=middle;resizable=0;points=[];" parent="30vycNhrkMzqPdWhLKba-30" vertex="1" connectable="0">
          <mxGeometry x="-0.0196" relative="1" as="geometry">
            <mxPoint as="offset" />
          </mxGeometry>
        </mxCell>
        <mxCell id="30vycNhrkMzqPdWhLKba-32" value="" style="endArrow=classic;html=1;rounded=0;exitX=0.334;exitY=0.976;exitDx=0;exitDy=0;exitPerimeter=0;entryX=0.168;entryY=0.875;entryDx=0;entryDy=0;entryPerimeter=0;dashed=1;" parent="1" source="30vycNhrkMzqPdWhLKba-8" target="30vycNhrkMzqPdWhLKba-13" edge="1">
          <mxGeometry width="50" height="50" relative="1" as="geometry">
            <mxPoint x="160" y="210" as="sourcePoint" />
            <mxPoint x="230" y="240" as="targetPoint" />
            <Array as="points">
              <mxPoint x="160" y="240" />
              <mxPoint x="640" y="240" />
              <mxPoint x="640" y="210" />
              <mxPoint x="690" y="210" />
            </Array>
          </mxGeometry>
        </mxCell>
        <mxCell id="30vycNhrkMzqPdWhLKba-33" value="&amp;lt;&amp;lt;include&amp;gt;&amp;gt;" style="edgeLabel;html=1;align=center;verticalAlign=middle;resizable=0;points=[];" parent="30vycNhrkMzqPdWhLKba-32" vertex="1" connectable="0">
          <mxGeometry x="0.0507" y="-1" relative="1" as="geometry">
            <mxPoint as="offset" />
          </mxGeometry>
        </mxCell>
        <mxCell id="30vycNhrkMzqPdWhLKba-34" value="" style="endArrow=classic;html=1;rounded=0;exitX=0.165;exitY=0.879;exitDx=0;exitDy=0;exitPerimeter=0;entryX=-0.02;entryY=0.485;entryDx=0;entryDy=0;entryPerimeter=0;dashed=1;" parent="1" source="30vycNhrkMzqPdWhLKba-8" target="30vycNhrkMzqPdWhLKba-17" edge="1">
          <mxGeometry width="50" height="50" relative="1" as="geometry">
            <mxPoint x="140" y="210" as="sourcePoint" />
            <mxPoint x="530" y="250" as="targetPoint" />
            <Array as="points">
              <mxPoint x="140" y="250" />
            </Array>
          </mxGeometry>
        </mxCell>
        <mxCell id="30vycNhrkMzqPdWhLKba-35" value="&amp;lt;&amp;lt;include&amp;gt;&amp;gt;" style="edgeLabel;html=1;align=center;verticalAlign=middle;resizable=0;points=[];" parent="30vycNhrkMzqPdWhLKba-34" vertex="1" connectable="0">
          <mxGeometry x="0.4537" relative="1" as="geometry">
            <mxPoint as="offset" />
          </mxGeometry>
        </mxCell>
        <mxCell id="30vycNhrkMzqPdWhLKba-36" value="Alterar aluno" style="ellipse;whiteSpace=wrap;html=1;" parent="1" vertex="1">
          <mxGeometry x="410" width="120" height="80" as="geometry" />
        </mxCell>
        <mxCell id="30vycNhrkMzqPdWhLKba-37" value="" style="endArrow=none;html=1;rounded=0;exitX=0.5;exitY=0;exitDx=0;exitDy=0;entryX=0.5;entryY=1;entryDx=0;entryDy=0;dashed=1;endFill=0;startArrow=classic;startFill=1;" parent="1" source="30vycNhrkMzqPdWhLKba-11" target="30vycNhrkMzqPdWhLKba-36" edge="1">
          <mxGeometry width="50" height="50" relative="1" as="geometry">
            <mxPoint x="320" y="40" as="sourcePoint" />
            <mxPoint x="370" y="-10" as="targetPoint" />
          </mxGeometry>
        </mxCell>
        <mxCell id="30vycNhrkMzqPdWhLKba-38" value="&amp;lt;&amp;lt;extend&amp;gt;&amp;gt;" style="text;html=1;align=center;verticalAlign=middle;resizable=0;points=[];autosize=1;strokeColor=none;fillColor=none;fontSize=12;" parent="1" vertex="1">
          <mxGeometry x="470" y="90" width="90" height="30" as="geometry" />
        </mxCell>
        <mxCell id="30vycNhrkMzqPdWhLKba-39" value="" style="endArrow=classic;html=1;rounded=0;exitX=0.665;exitY=0.971;exitDx=0;exitDy=0;exitPerimeter=0;entryX=0.5;entryY=1;entryDx=0;entryDy=0;dashed=1;" parent="1" source="30vycNhrkMzqPdWhLKba-9" target="30vycNhrkMzqPdWhLKba-14" edge="1">
          <mxGeometry width="50" height="50" relative="1" as="geometry">
            <mxPoint x="300" y="450" as="sourcePoint" />
            <mxPoint x="350" y="400" as="targetPoint" />
            <Array as="points">
              <mxPoint x="200" y="370" />
              <mxPoint x="340" y="370" />
            </Array>
          </mxGeometry>
        </mxCell>
        <mxCell id="30vycNhrkMzqPdWhLKba-40" value="&amp;lt;&amp;lt;include&amp;gt;&amp;gt;" style="edgeLabel;html=1;align=center;verticalAlign=middle;resizable=0;points=[];" parent="30vycNhrkMzqPdWhLKba-39" vertex="1" connectable="0">
          <mxGeometry x="-0.1103" relative="1" as="geometry">
            <mxPoint as="offset" />
          </mxGeometry>
        </mxCell>
        <mxCell id="30vycNhrkMzqPdWhLKba-41" value="" style="endArrow=classic;html=1;rounded=0;exitX=0.5;exitY=1;exitDx=0;exitDy=0;entryX=0.5;entryY=1;entryDx=0;entryDy=0;dashed=1;" parent="1" source="30vycNhrkMzqPdWhLKba-9" target="30vycNhrkMzqPdWhLKba-15" edge="1">
          <mxGeometry width="50" height="50" relative="1" as="geometry">
            <mxPoint x="200" y="460" as="sourcePoint" />
            <mxPoint x="250" y="410" as="targetPoint" />
            <Array as="points">
              <mxPoint x="180" y="380" />
              <mxPoint x="470" y="380" />
            </Array>
          </mxGeometry>
        </mxCell>
        <mxCell id="30vycNhrkMzqPdWhLKba-42" value="&amp;lt;&amp;lt;include&amp;gt;&amp;gt;" style="edgeLabel;html=1;align=center;verticalAlign=middle;resizable=0;points=[];" parent="30vycNhrkMzqPdWhLKba-41" vertex="1" connectable="0">
          <mxGeometry x="-0.0242" y="-1" relative="1" as="geometry">
            <mxPoint as="offset" />
          </mxGeometry>
        </mxCell>
        <mxCell id="30vycNhrkMzqPdWhLKba-43" value="" style="endArrow=classic;html=1;rounded=0;exitX=0.333;exitY=0.972;exitDx=0;exitDy=0;exitPerimeter=0;entryX=0.5;entryY=1;entryDx=0;entryDy=0;dashed=1;" parent="1" source="30vycNhrkMzqPdWhLKba-9" target="30vycNhrkMzqPdWhLKba-16" edge="1">
          <mxGeometry width="50" height="50" relative="1" as="geometry">
            <mxPoint x="260" y="460" as="sourcePoint" />
            <mxPoint x="310" y="410" as="targetPoint" />
            <Array as="points">
              <mxPoint x="160" y="390" />
              <mxPoint x="600" y="390" />
            </Array>
          </mxGeometry>
        </mxCell>
        <mxCell id="30vycNhrkMzqPdWhLKba-44" value="&amp;lt;&amp;lt;include&amp;gt;&amp;gt;" style="edgeLabel;html=1;align=center;verticalAlign=middle;resizable=0;points=[];" parent="30vycNhrkMzqPdWhLKba-43" vertex="1" connectable="0">
          <mxGeometry x="-0.0241" relative="1" as="geometry">
            <mxPoint as="offset" />
          </mxGeometry>
        </mxCell>
        <mxCell id="D-8fd-A4q3ZxDmlzXXs8-1" value="" style="endArrow=none;html=1;rounded=0;exitX=0.063;exitY=0.751;exitDx=0;exitDy=0;exitPerimeter=0;entryX=0.5;entryY=0;entryDx=0;entryDy=0;dashed=1;startArrow=classic;startFill=1;endFill=0;" edge="1" parent="1" source="30vycNhrkMzqPdWhLKba-8" target="30vycNhrkMzqPdWhLKba-14">
          <mxGeometry width="50" height="50" relative="1" as="geometry">
            <mxPoint x="120" y="210" as="sourcePoint" />
            <mxPoint x="290" y="270" as="targetPoint" />
            <Array as="points">
              <mxPoint x="100" y="180" />
              <mxPoint x="100" y="260" />
              <mxPoint x="340" y="260" />
            </Array>
          </mxGeometry>
        </mxCell>
        <mxCell id="D-8fd-A4q3ZxDmlzXXs8-2" value="&amp;lt;&amp;lt;extend&amp;gt;&amp;gt;" style="edgeLabel;html=1;align=center;verticalAlign=middle;resizable=0;points=[];" vertex="1" connectable="0" parent="D-8fd-A4q3ZxDmlzXXs8-1">
          <mxGeometry x="0.3435" y="1" relative="1" as="geometry">
            <mxPoint as="offset" />
          </mxGeometry>
        </mxCell>
      </root>
    </mxGraphModel>
  </diagram>
</mxfile>
